<mxfile host="app.diagrams.net" agent="Mozilla/5.0 (Windows NT 10.0; Win64; x64) AppleWebKit/537.36 (KHTML, like Gecko) Chrome/138.0.0.0 Safari/537.36" version="28.0.6">
  <diagram name="第 1 页" id="eJTNAvfNTYH1dQkb1K-Z">
    <mxGraphModel dx="2066" dy="1137" grid="1" gridSize="10" guides="1" tooltips="1" connect="1" arrows="1" fold="1" page="1" pageScale="1" pageWidth="827" pageHeight="1169" math="0" shadow="0">
      <root>
        <mxCell id="0" />
        <mxCell id="1" parent="0" />
        <mxCell id="uBt-b1F2RA5JdHw69HLk-2" value="" style="rounded=0;whiteSpace=wrap;html=1;fillColor=#d5e8d4;shadow=0;strokeColor=#82b366;" parent="1" vertex="1">
          <mxGeometry x="50" y="310" width="690" height="380" as="geometry" />
        </mxCell>
        <mxCell id="uBt-b1F2RA5JdHw69HLk-3" value="基础服务" style="text;html=1;align=center;verticalAlign=middle;whiteSpace=wrap;rounded=0;shadow=0;" parent="1" vertex="1">
          <mxGeometry x="380" y="320" width="60" height="30" as="geometry" />
        </mxCell>
        <mxCell id="uBt-b1F2RA5JdHw69HLk-4" value="用户服务" style="rounded=1;whiteSpace=wrap;html=1;fillColor=#fff2cc;shadow=0;strokeColor=#d6b656;" parent="1" vertex="1">
          <mxGeometry x="100" y="500" width="120" height="60" as="geometry" />
        </mxCell>
        <mxCell id="uBt-b1F2RA5JdHw69HLk-32" value="" style="edgeStyle=orthogonalEdgeStyle;rounded=0;orthogonalLoop=1;jettySize=auto;html=1;shadow=0;" parent="1" source="uBt-b1F2RA5JdHw69HLk-5" target="uBt-b1F2RA5JdHw69HLk-4" edge="1">
          <mxGeometry relative="1" as="geometry" />
        </mxCell>
        <mxCell id="uBt-b1F2RA5JdHw69HLk-34" style="edgeStyle=orthogonalEdgeStyle;rounded=0;orthogonalLoop=1;jettySize=auto;html=1;exitX=1;exitY=0.5;exitDx=0;exitDy=0;entryX=0;entryY=0.5;entryDx=0;entryDy=0;shadow=0;" parent="1" source="uBt-b1F2RA5JdHw69HLk-5" target="uBt-b1F2RA5JdHw69HLk-33" edge="1">
          <mxGeometry relative="1" as="geometry" />
        </mxCell>
        <mxCell id="uBt-b1F2RA5JdHw69HLk-39" value="" style="edgeStyle=orthogonalEdgeStyle;rounded=0;orthogonalLoop=1;jettySize=auto;html=1;shadow=0;" parent="1" source="uBt-b1F2RA5JdHw69HLk-5" target="uBt-b1F2RA5JdHw69HLk-38" edge="1">
          <mxGeometry relative="1" as="geometry" />
        </mxCell>
        <mxCell id="uBt-b1F2RA5JdHw69HLk-5" value="企业服务" style="rounded=1;whiteSpace=wrap;html=1;fillColor=#fff2cc;shadow=0;strokeColor=#d6b656;" parent="1" vertex="1">
          <mxGeometry x="270" y="500" width="120" height="60" as="geometry" />
        </mxCell>
        <mxCell id="uBt-b1F2RA5JdHw69HLk-31" value="" style="edgeStyle=orthogonalEdgeStyle;rounded=0;orthogonalLoop=1;jettySize=auto;html=1;shadow=0;" parent="1" source="uBt-b1F2RA5JdHw69HLk-6" target="uBt-b1F2RA5JdHw69HLk-4" edge="1">
          <mxGeometry relative="1" as="geometry" />
        </mxCell>
        <mxCell id="uBt-b1F2RA5JdHw69HLk-6" value="账号服务" style="rounded=1;whiteSpace=wrap;html=1;fillColor=#fff2cc;shadow=0;strokeColor=#d6b656;" parent="1" vertex="1">
          <mxGeometry x="100" y="380" width="120" height="60" as="geometry" />
        </mxCell>
        <mxCell id="uBt-b1F2RA5JdHw69HLk-7" value="文件服务" style="rounded=1;whiteSpace=wrap;html=1;fillColor=#fff2cc;shadow=0;strokeColor=#d6b656;" parent="1" vertex="1">
          <mxGeometry x="370" y="380" width="120" height="60" as="geometry" />
        </mxCell>
        <mxCell id="uBt-b1F2RA5JdHw69HLk-8" value="计费服务" style="rounded=1;whiteSpace=wrap;html=1;fillColor=#fff2cc;shadow=0;strokeColor=#d6b656;" parent="1" vertex="1">
          <mxGeometry x="560" y="380" width="120" height="60" as="geometry" />
        </mxCell>
        <mxCell id="uBt-b1F2RA5JdHw69HLk-9" value="" style="rounded=0;whiteSpace=wrap;html=1;fillColor=#d5e8d4;shadow=0;strokeColor=#82b366;" parent="1" vertex="1">
          <mxGeometry x="130" y="30" width="570" height="240" as="geometry" />
        </mxCell>
        <mxCell id="uBt-b1F2RA5JdHw69HLk-11" value="会议产品" style="text;html=1;align=center;verticalAlign=middle;whiteSpace=wrap;rounded=0;shadow=0;" parent="1" vertex="1">
          <mxGeometry x="380" y="30" width="60" height="30" as="geometry" />
        </mxCell>
        <mxCell id="uBt-b1F2RA5JdHw69HLk-19" value="" style="edgeStyle=orthogonalEdgeStyle;rounded=0;orthogonalLoop=1;jettySize=auto;html=1;shadow=0;" parent="1" source="uBt-b1F2RA5JdHw69HLk-12" target="uBt-b1F2RA5JdHw69HLk-14" edge="1">
          <mxGeometry relative="1" as="geometry" />
        </mxCell>
        <mxCell id="uBt-b1F2RA5JdHw69HLk-12" value="会议服务" style="rounded=1;whiteSpace=wrap;html=1;fillColor=#f8cecc;shadow=0;strokeColor=#b85450;" parent="1" vertex="1">
          <mxGeometry x="440" y="80" width="120" height="60" as="geometry" />
        </mxCell>
        <mxCell id="uBt-b1F2RA5JdHw69HLk-18" value="" style="edgeStyle=orthogonalEdgeStyle;rounded=0;orthogonalLoop=1;jettySize=auto;html=1;shadow=0;" parent="1" source="uBt-b1F2RA5JdHw69HLk-13" target="uBt-b1F2RA5JdHw69HLk-14" edge="1">
          <mxGeometry relative="1" as="geometry" />
        </mxCell>
        <mxCell id="uBt-b1F2RA5JdHw69HLk-13" value="会话服务" style="rounded=1;whiteSpace=wrap;html=1;fillColor=#f8cecc;shadow=0;strokeColor=#b85450;" parent="1" vertex="1">
          <mxGeometry x="270" y="190" width="120" height="60" as="geometry" />
        </mxCell>
        <mxCell id="uBt-b1F2RA5JdHw69HLk-14" value="直播服务" style="rounded=1;whiteSpace=wrap;html=1;shadow=0;fillColor=#dae8fc;strokeColor=#6c8ebf;" parent="1" vertex="1">
          <mxGeometry x="440" y="190" width="120" height="60" as="geometry" />
        </mxCell>
        <mxCell id="uBt-b1F2RA5JdHw69HLk-16" value="" style="edgeStyle=orthogonalEdgeStyle;rounded=0;orthogonalLoop=1;jettySize=auto;html=1;shadow=0;" parent="1" source="uBt-b1F2RA5JdHw69HLk-15" target="uBt-b1F2RA5JdHw69HLk-12" edge="1">
          <mxGeometry relative="1" as="geometry" />
        </mxCell>
        <mxCell id="uBt-b1F2RA5JdHw69HLk-17" value="" style="edgeStyle=orthogonalEdgeStyle;rounded=0;orthogonalLoop=1;jettySize=auto;html=1;shadow=0;" parent="1" source="uBt-b1F2RA5JdHw69HLk-15" target="uBt-b1F2RA5JdHw69HLk-13" edge="1">
          <mxGeometry relative="1" as="geometry" />
        </mxCell>
        <mxCell id="uBt-b1F2RA5JdHw69HLk-40" style="rounded=0;orthogonalLoop=1;jettySize=auto;html=1;exitX=0.25;exitY=1;exitDx=0;exitDy=0;entryX=0.25;entryY=0;entryDx=0;entryDy=0;shadow=0;" parent="1" source="uBt-b1F2RA5JdHw69HLk-15" target="uBt-b1F2RA5JdHw69HLk-5" edge="1">
          <mxGeometry relative="1" as="geometry" />
        </mxCell>
        <mxCell id="uBt-b1F2RA5JdHw69HLk-15" value="统计服务" style="rounded=1;whiteSpace=wrap;html=1;shadow=0;fillColor=#dae8fc;strokeColor=#6c8ebf;" parent="1" vertex="1">
          <mxGeometry x="270" y="80" width="120" height="60" as="geometry" />
        </mxCell>
        <mxCell id="uBt-b1F2RA5JdHw69HLk-20" value="" style="endArrow=classic;html=1;rounded=0;exitX=1;exitY=1;exitDx=0;exitDy=0;entryX=0;entryY=0;entryDx=0;entryDy=0;shadow=0;" parent="1" source="uBt-b1F2RA5JdHw69HLk-15" target="uBt-b1F2RA5JdHw69HLk-14" edge="1">
          <mxGeometry width="50" height="50" relative="1" as="geometry">
            <mxPoint x="390" y="350" as="sourcePoint" />
            <mxPoint x="440" y="300" as="targetPoint" />
          </mxGeometry>
        </mxCell>
        <mxCell id="uBt-b1F2RA5JdHw69HLk-21" value="" style="endArrow=classic;html=1;rounded=0;exitX=0.5;exitY=1;exitDx=0;exitDy=0;entryX=0.5;entryY=0;entryDx=0;entryDy=0;shadow=0;" parent="1" source="uBt-b1F2RA5JdHw69HLk-14" target="uBt-b1F2RA5JdHw69HLk-8" edge="1">
          <mxGeometry width="50" height="50" relative="1" as="geometry">
            <mxPoint x="-10" y="330" as="sourcePoint" />
            <mxPoint x="40" y="280" as="targetPoint" />
          </mxGeometry>
        </mxCell>
        <mxCell id="uBt-b1F2RA5JdHw69HLk-23" value="" style="endArrow=classic;html=1;rounded=0;exitX=0.5;exitY=1;exitDx=0;exitDy=0;entryX=0.5;entryY=0;entryDx=0;entryDy=0;shadow=0;" parent="1" source="uBt-b1F2RA5JdHw69HLk-13" target="uBt-b1F2RA5JdHw69HLk-5" edge="1">
          <mxGeometry width="50" height="50" relative="1" as="geometry">
            <mxPoint x="514" y="260" as="sourcePoint" />
            <mxPoint x="560" y="400" as="targetPoint" />
          </mxGeometry>
        </mxCell>
        <mxCell id="uBt-b1F2RA5JdHw69HLk-24" value="" style="endArrow=classic;html=1;rounded=0;exitX=0.75;exitY=1;exitDx=0;exitDy=0;entryX=0.25;entryY=0;entryDx=0;entryDy=0;shadow=0;" parent="1" source="uBt-b1F2RA5JdHw69HLk-13" target="uBt-b1F2RA5JdHw69HLk-8" edge="1">
          <mxGeometry width="50" height="50" relative="1" as="geometry">
            <mxPoint x="340" y="260" as="sourcePoint" />
            <mxPoint x="364" y="410" as="targetPoint" />
          </mxGeometry>
        </mxCell>
        <mxCell id="uBt-b1F2RA5JdHw69HLk-25" value="" style="endArrow=classic;html=1;rounded=0;exitX=0.6;exitY=0.933;exitDx=0;exitDy=0;entryX=0.25;entryY=0;entryDx=0;entryDy=0;exitPerimeter=0;shadow=0;" parent="1" source="uBt-b1F2RA5JdHw69HLk-13" target="uBt-b1F2RA5JdHw69HLk-7" edge="1">
          <mxGeometry width="50" height="50" relative="1" as="geometry">
            <mxPoint x="340" y="260" as="sourcePoint" />
            <mxPoint x="364" y="410" as="targetPoint" />
          </mxGeometry>
        </mxCell>
        <mxCell id="uBt-b1F2RA5JdHw69HLk-27" value="" style="endArrow=classic;html=1;rounded=0;exitX=1;exitY=0.5;exitDx=0;exitDy=0;entryX=0;entryY=0.5;entryDx=0;entryDy=0;shadow=0;" parent="1" source="uBt-b1F2RA5JdHw69HLk-7" target="uBt-b1F2RA5JdHw69HLk-8" edge="1">
          <mxGeometry width="50" height="50" relative="1" as="geometry">
            <mxPoint x="352" y="256" as="sourcePoint" />
            <mxPoint x="500" y="500" as="targetPoint" />
          </mxGeometry>
        </mxCell>
        <mxCell id="uBt-b1F2RA5JdHw69HLk-29" value="" style="endArrow=classic;html=1;rounded=0;exitX=0.5;exitY=1;exitDx=0;exitDy=0;entryX=0.75;entryY=0;entryDx=0;entryDy=0;shadow=0;" parent="1" source="uBt-b1F2RA5JdHw69HLk-7" target="uBt-b1F2RA5JdHw69HLk-5" edge="1">
          <mxGeometry width="50" height="50" relative="1" as="geometry">
            <mxPoint x="352" y="256" as="sourcePoint" />
            <mxPoint x="540" y="510" as="targetPoint" />
          </mxGeometry>
        </mxCell>
        <mxCell id="uBt-b1F2RA5JdHw69HLk-30" value="" style="endArrow=classic;html=1;rounded=0;exitX=1;exitY=0.5;exitDx=0;exitDy=0;entryX=0;entryY=0;entryDx=0;entryDy=0;shadow=0;" parent="1" source="uBt-b1F2RA5JdHw69HLk-6" target="uBt-b1F2RA5JdHw69HLk-5" edge="1">
          <mxGeometry width="50" height="50" relative="1" as="geometry">
            <mxPoint x="340" y="260" as="sourcePoint" />
            <mxPoint x="394" y="480" as="targetPoint" />
          </mxGeometry>
        </mxCell>
        <mxCell id="uBt-b1F2RA5JdHw69HLk-33" value="会议室服务" style="rounded=1;whiteSpace=wrap;html=1;fillColor=#fff2cc;shadow=0;strokeColor=#d6b656;" parent="1" vertex="1">
          <mxGeometry x="580" y="500" width="120" height="60" as="geometry" />
        </mxCell>
        <mxCell id="uBt-b1F2RA5JdHw69HLk-37" style="edgeStyle=orthogonalEdgeStyle;rounded=0;orthogonalLoop=1;jettySize=auto;html=1;entryX=1;entryY=0.383;entryDx=0;entryDy=0;entryPerimeter=0;shadow=0;" parent="1" source="uBt-b1F2RA5JdHw69HLk-12" target="uBt-b1F2RA5JdHw69HLk-33" edge="1">
          <mxGeometry relative="1" as="geometry" />
        </mxCell>
        <mxCell id="uBt-b1F2RA5JdHw69HLk-38" value="客户端配置中心" style="rounded=1;whiteSpace=wrap;html=1;fillColor=#fff2cc;shadow=0;strokeColor=#d6b656;" parent="1" vertex="1">
          <mxGeometry x="270" y="610" width="120" height="60" as="geometry" />
        </mxCell>
      </root>
    </mxGraphModel>
  </diagram>
</mxfile>
